<svg version="1.1" id="Layer_1" xmlns="http://www.w3.org/2000/svg" xmlns:xlink="http://www.w3.org/1999/xlink" x="0px" y="0px"
	 width="100%" viewBox="0 0 2472 693" enable-background="new 0 0 2472 693" xml:space="preserve">
<path fill="#8C181C" opacity="1.000000" stroke="none" 
	d="
M1806.000000,694.000000 
	C1204.000122,694.000000 602.500244,694.000000 1.000242,694.000000 
	C1.000161,463.000153 1.000161,232.000305 1.000081,1.000335 
	C824.999695,1.000223 1648.999390,1.000223 2472.999268,1.000112 
	C2472.999512,231.999649 2472.999512,462.999298 2472.999756,693.999512 
	C2250.833252,694.000000 2028.666626,694.000000 1806.000000,694.000000 
M142.671112,335.165405 
	C143.011810,347.121887 143.172806,359.087799 143.800369,371.029205 
	C143.994049,374.714417 143.701370,376.959442 139.882446,378.805328 
	C129.264801,383.937531 118.902855,389.604340 108.517273,395.203491 
	C107.316406,395.850922 105.624672,397.613922 105.816704,398.501343 
	C107.487679,406.223114 109.536858,413.863098 111.582802,421.959473 
	C149.739517,409.705688 186.986374,397.744080 224.222336,385.786011 
	C203.119446,314.511078 243.528503,255.870224 290.787140,234.387360 
	C343.656097,210.354172 405.757996,225.525787 441.233154,271.320374 
	C476.555939,316.918152 475.887695,381.299866 439.565857,425.698608 
	C421.341034,447.976074 398.186249,462.614594 370.104340,468.832489 
	C333.672882,476.899078 300.208252,469.229828 269.593201,448.018036 
	C246.220322,479.952484 223.043289,511.619354 199.587433,543.667175 
	C207.459183,548.747986 214.962830,553.591125 224.061401,559.463745 
	C233.874512,548.472839 243.613892,537.564514 253.053314,526.992188 
	C271.122894,535.818176 288.327545,541.292419 306.160004,544.958191 
	C307.610809,545.256348 309.416656,547.518250 309.719696,549.120728 
	C312.005371,561.207031 313.894836,573.367920 316.100739,585.470337 
	C316.335083,586.756104 317.712219,588.736389 318.723297,588.843323 
	C335.643188,590.633240 352.571320,590.642517 369.765320,588.576294 
	C372.292755,574.081970 374.797516,559.717529 377.067047,546.702271 
	C396.012665,540.532410 414.091736,534.644714 434.726227,527.924866 
	C443.142090,537.228516 452.938354,548.058167 463.248413,559.455750 
	C478.539581,548.308960 492.721893,537.970459 506.838867,527.679565 
	C499.800171,513.351257 493.379272,500.280548 486.938080,487.168549 
	C499.683685,473.915009 510.286560,459.475616 519.129883,443.711182 
	C519.828491,442.465820 522.213318,441.282196 523.634766,441.465302 
	C535.845642,443.038330 548.032410,444.826569 560.184875,446.805603 
	C563.244629,447.303894 564.846252,446.530640 565.777161,443.646881 
	C570.416199,429.276337 575.128540,414.929413 579.790833,400.566284 
	C580.659302,397.890564 580.145935,396.183105 577.204956,394.713715 
	C566.501892,389.366180 556.058044,383.501282 545.377441,378.106628 
	C542.580566,376.693909 541.858276,375.244812 541.909058,372.082855 
	C542.173096,355.638763 542.161682,339.185852 541.895142,322.741730 
	C541.847168,319.781311 542.436768,318.333038 545.052612,317.000031 
	C555.862244,311.491425 566.507446,305.660126 577.321411,300.160400 
	C579.897461,298.850250 580.740662,297.359772 579.873718,294.705048 
	C575.136414,280.198792 570.403748,265.690979 565.703796,251.172623 
	C564.855347,248.551773 563.446350,247.615097 560.513428,248.085297 
	C548.361145,250.033524 536.147461,251.601608 524.002869,253.593018 
	C521.110291,254.067337 519.996643,253.153580 518.698303,250.772141 
	C510.693542,236.089371 501.014862,222.569550 489.407959,210.516647 
	C487.206909,208.231064 487.417511,206.649811 488.701508,204.125443 
	C494.198425,193.318192 499.534576,182.427170 504.748169,171.480392 
	C505.371948,170.170685 505.591064,167.566132 504.814392,166.856049 
	C492.160919,155.286850 478.358093,145.281677 461.678741,135.918243 
	C453.498108,144.714951 445.070648,153.487045 437.007843,162.582367 
	C433.532654,166.502533 430.726105,166.908478 425.604431,164.911606 
	C409.899811,158.788574 393.791962,153.699600 377.007538,147.921692 
	C374.756195,135.018616 372.251984,120.666389 369.630066,105.639420 
	C351.878967,105.639420 334.470337,105.639420 317.160767,105.639420 
	C316.674683,107.074875 316.303589,107.833534 316.164368,108.632599 
	C314.109039,120.427925 311.871094,132.197998 310.170990,144.045029 
	C309.593140,148.071625 308.446564,150.039688 304.132019,150.760437 
	C288.151642,153.429962 272.872559,158.543533 258.290100,165.562546 
	C255.090134,167.102783 253.417480,166.521194 251.081619,164.175095 
	C241.819504,154.872314 232.322281,145.803619 222.100464,135.858414 
	C207.740067,146.267548 193.547333,156.555161 179.323395,166.865387 
	C185.774963,179.885818 191.596939,191.821457 197.622574,203.653366 
	C198.969131,206.297470 198.700851,207.984619 196.643677,210.137177 
	C185.083298,222.233414 175.320312,235.683395 167.261993,250.345703 
	C165.950333,252.732285 164.906540,254.011963 161.602203,253.439407 
	C149.637848,251.366302 137.572845,249.880707 125.566757,248.037094 
	C122.653442,247.589722 120.952576,248.256516 119.993767,251.243149 
	C115.430847,265.456543 110.753357,279.633392 106.058220,293.803925 
	C104.951668,297.143616 106.207520,298.770538 109.275780,300.273285 
	C117.779747,304.438385 125.910835,309.397766 134.534912,313.274384 
	C141.652451,316.473724 146.140442,320.236176 143.078964,328.773315 
	C142.486389,330.425751 142.811295,332.407196 142.671112,335.165405 
M873.276062,366.236450 
	C892.621948,368.880798 911.967896,371.525146 931.445190,374.187469 
	C931.445190,386.207092 931.445190,398.481903 931.445190,411.332642 
	C925.355530,411.856445 919.431824,412.597046 913.487915,412.834381 
	C894.804932,413.580475 876.219421,412.701599 857.828003,408.995483 
	C856.328186,408.693268 854.177002,408.495728 853.187683,409.302734 
	C847.385742,414.035919 841.814514,419.054688 836.239563,424.059662 
	C835.575684,424.655670 835.141846,425.712952 834.975769,426.624634 
	C833.999329,431.985046 833.134094,437.365753 832.205811,442.892029 
	C833.580200,443.360229 834.631714,443.880127 835.739929,444.071594 
	C850.463196,446.615601 865.110046,450.020630 879.944336,451.401794 
	C900.156311,453.283661 920.524658,453.607361 940.560730,448.981842 
	C961.088196,444.242859 975.311523,432.687683 979.894958,411.355469 
	C982.826477,397.711700 982.856812,383.972595 980.205750,370.219086 
	C976.976562,353.465637 967.646912,341.559174 951.508484,336.148499 
	C941.501831,332.793610 930.980896,330.626282 920.520935,329.062531 
	C908.919250,327.328094 897.124207,326.887909 885.328369,325.876923 
	C885.328369,312.986298 885.328369,300.550964 885.328369,288.027588 
	C886.455566,287.735016 887.411926,287.266235 888.365417,287.271942 
	C906.137085,287.378204 923.913452,287.351685 941.676514,287.820068 
	C946.318176,287.942444 950.218262,288.167450 953.785645,284.309357 
	C957.606506,280.177155 962.342773,276.905701 966.433716,273.001129 
	C967.878906,271.621735 969.110779,269.598572 969.546875,267.667603 
	C970.526184,263.332275 970.945923,258.870605 971.611633,254.336533 
	C970.777405,254.027313 970.193115,253.726547 969.572937,253.592941 
	C939.931519,247.208008 910.002380,244.328751 879.819763,248.157791 
	C856.074097,251.170212 842.633057,263.265167 837.403137,284.963898 
	C834.252563,298.035675 834.121582,311.356445 835.251099,324.678040 
	C836.999817,345.304199 847.544556,358.954346 867.650696,364.819183 
	C869.243958,365.283936 870.861816,365.664490 873.276062,366.236450 
M1035.000000,294.500793 
	C1035.000000,345.578003 1035.000000,396.655243 1035.000000,447.596130 
	C1035.894287,447.817627 1036.203369,447.960999 1036.512329,447.961182 
	C1069.498535,447.980957 1102.484985,448.016510 1135.470825,447.920227 
	C1137.092529,447.915497 1139.022583,447.124756 1140.278076,446.068665 
	C1146.641602,440.715698 1152.870605,435.199341 1159.042236,429.624603 
	C1160.185425,428.591949 1161.538818,427.065857 1161.612793,425.703369 
	C1161.907227,420.273376 1161.734131,414.818024 1161.734131,408.807068 
	C1134.818237,408.807068 1108.450806,408.807068 1082.226196,408.807068 
	C1082.226196,394.621765 1082.226196,381.011627 1082.226196,366.897003 
	C1105.007568,366.897003 1127.568604,366.897003 1150.164307,366.897003 
	C1150.164307,355.099457 1150.164307,343.810730 1150.164307,332.005127 
	C1127.448242,332.005127 1104.892456,332.005127 1082.276367,332.005127 
	C1082.276367,317.757538 1082.276367,304.029694 1082.276367,289.894348 
	C1106.957397,289.894348 1131.365356,289.894348 1155.831787,289.894348 
	C1155.831787,276.759918 1155.831787,264.037781 1155.831787,251.000061 
	C1153.916870,251.000061 1152.276611,251.000046 1150.636230,251.000046 
	C1128.312012,251.000046 1105.935425,251.928528 1083.682007,250.672745 
	C1068.914917,249.839417 1058.294067,254.522797 1047.429199,264.269531 
	C1037.991699,272.735840 1032.698120,280.979340 1035.000000,294.500793 
M796.747131,279.460083 
	C796.747131,270.037018 796.747131,260.613983 796.747131,250.998154 
	C759.014709,250.998154 722.022827,250.971436 685.031311,251.089371 
	C683.441711,251.094452 681.594055,252.123901 680.313171,253.205185 
	C673.823669,258.683411 667.943787,265.017914 660.966370,269.748627 
	C653.005920,275.145813 653.806396,282.170410 654.713074,290.173401 
	C670.533875,290.173401 686.128235,290.173401 702.166138,290.173401 
	C702.166138,342.972412 702.166138,395.370728 702.166138,448.002350 
	C708.097107,448.002350 713.588013,447.785797 719.052612,448.072113 
	C723.286194,448.293915 726.599365,447.337952 729.745911,444.213715 
	C734.462097,439.531189 739.596252,435.229370 744.841797,431.136261 
	C747.758789,428.860138 748.846802,426.460205 748.834656,422.733490 
	C748.696716,380.402283 748.747070,338.070465 748.747070,295.738831 
	C748.747070,293.960571 748.747131,292.182312 748.747131,289.883179 
	C764.957764,289.883179 780.685120,289.883179 796.747131,289.883179 
	C796.747131,286.386292 796.747131,283.414398 796.747131,279.460083 
M300.634064,392.149628 
	C307.377869,382.897827 314.121704,373.646027 320.865509,364.394257 
	C320.661224,364.069183 320.456940,363.744110 320.252655,363.419037 
	C252.043884,385.303680 183.835114,407.188324 115.317734,429.171997 
	C116.689529,432.881378 118.101257,436.067719 119.032310,439.388794 
	C120.019981,442.911835 122.148094,443.439697 125.385933,442.992340 
	C136.432190,441.466003 147.545441,440.383362 158.549667,438.612793 
	C163.498489,437.816467 166.409302,439.271118 168.674088,443.555298 
	C176.578094,458.506805 186.450729,472.072815 198.237839,484.199036 
	C201.316208,487.365997 202.092468,490.414520 200.027283,494.481293 
	C195.964920,502.480896 192.199966,510.631470 188.307877,518.717651 
	C183.039581,529.662964 183.036545,529.664001 192.531296,537.067688 
	C192.877548,537.337646 193.307266,537.500549 193.947388,537.849121 
	C229.394958,489.413147 264.783722,441.057495 300.634064,392.149628 
M2209.720947,353.359253 
	C2205.668457,351.143036 2201.668701,350.957794 2197.945312,353.973755 
	C2195.231689,356.171570 2192.815186,358.752014 2190.017578,360.825989 
	C2187.316406,362.828400 2186.574707,365.224976 2186.591309,368.499054 
	C2186.715576,392.978577 2186.658936,417.459015 2186.658936,441.939148 
	C2186.658936,443.546173 2186.658936,445.153229 2186.658936,446.660126 
	C2194.491211,446.660126 2201.734619,446.660126 2209.395996,446.660126 
	C2209.395996,428.218994 2209.395996,410.118988 2209.395996,391.678772 
	C2211.145752,395.064392 2212.487793,398.099823 2214.203613,400.907043 
	C2222.352051,414.237793 2230.599854,427.507782 2238.817139,440.796387 
	C2242.685547,447.052612 2245.700684,448.856781 2252.438477,446.763672 
	C2255.812256,445.715546 2258.803223,442.677917 2261.339355,439.954926 
	C2263.045410,438.123199 2264.583984,435.275421 2264.605713,432.867737 
	C2264.837402,407.390503 2264.753906,381.910370 2264.738037,356.431030 
	C2264.737061,355.010284 2264.568359,353.589630 2264.486328,352.304047 
	C2256.729004,352.304047 2249.478760,352.304047 2241.967285,352.304047 
	C2241.967285,370.686157 2241.967285,388.762756 2241.967285,405.454895 
	C2231.700684,388.910400 2220.889404,371.488007 2209.720947,353.359253 
M1533.002930,402.500000 
	C1533.002930,385.745972 1533.002930,368.991943 1533.002930,352.283997 
	C1525.144165,352.283997 1517.899902,352.283997 1510.040527,352.283997 
	C1510.040527,370.153076 1510.040527,387.742798 1510.040527,406.025452 
	C1507.726440,401.927734 1505.971313,398.572968 1503.991089,395.356903 
	C1496.057617,382.472595 1488.050293,369.633820 1480.078735,356.772980 
	C1476.372070,350.792542 1470.899170,349.984100 1465.473755,354.652924 
	C1463.076416,356.716064 1460.831177,358.980988 1458.290894,360.846497 
	C1455.611694,362.813995 1454.783447,365.163940 1454.801880,368.471375 
	C1454.939331,393.123444 1454.872559,417.776581 1454.887085,442.429413 
	C1454.887939,443.863281 1455.040405,445.297089 1455.129395,446.854126 
	C1462.601196,446.854126 1469.724854,446.854126 1477.443359,446.854126 
	C1477.443359,428.899414 1477.443359,411.059998 1477.443359,392.732574 
	C1488.171631,410.113922 1498.560913,426.834595 1508.793945,443.650360 
	C1510.252319,446.046906 1511.765015,446.960663 1514.648438,447.140167 
	C1519.665283,447.452484 1523.267944,445.706818 1527.147095,442.579346 
	C1531.793823,438.833038 1533.438110,434.796295 1533.121460,428.979248 
	C1532.660156,420.509125 1533.002930,411.995239 1533.002930,402.500000 
M1779.688965,441.904449 
	C1781.363403,445.824707 1784.067627,447.027588 1788.535156,447.243958 
	C1795.003052,447.557190 1797.991821,443.042328 1801.777344,439.672180 
	C1803.468140,438.167023 1804.849365,435.327545 1804.867920,433.081360 
	C1805.080078,407.272644 1805.005127,381.461548 1804.996338,355.651093 
	C1804.995972,354.538513 1804.895996,353.425964 1804.838623,352.232239 
	C1797.233765,352.232239 1789.988159,352.232239 1782.051392,352.232239 
	C1782.051392,370.322540 1782.051392,388.190033 1782.051392,406.593170 
	C1779.956055,402.682495 1778.401367,399.402252 1776.514893,396.325500 
	C1768.348389,383.006042 1760.083252,369.747131 1751.857666,356.463959 
	C1748.392578,350.868500 1742.670288,350.064423 1737.503906,354.495209 
	C1735.230347,356.445221 1733.170532,358.679047 1730.746704,360.410309 
	C1727.769287,362.537048 1726.747314,365.031616 1726.777100,368.767273 
	C1726.970703,393.077515 1726.876465,417.390045 1726.876465,441.701843 
	C1726.876465,443.321228 1726.876587,444.940613 1726.876587,446.757019 
	C1734.530396,446.757019 1741.754272,446.757019 1749.541504,446.757019 
	C1749.541504,429.017883 1749.541504,411.517700 1749.541504,392.970551 
	C1759.863892,409.763763 1769.557861,425.534729 1779.688965,441.904449 
M2055.499268,351.996277 
	C2049.670166,351.996307 2043.840454,351.938171 2038.012451,352.013336 
	C2032.595093,352.083191 2023.878906,360.875580 2023.877808,366.175995 
	C2023.872681,391.490570 2023.875610,416.805176 2023.875610,442.119751 
	C2023.875610,443.693390 2023.875732,445.266998 2023.875732,446.793793 
	C2031.729980,446.793793 2038.839600,446.793793 2046.488037,446.793793 
	C2046.488037,436.682953 2046.488037,426.771942 2046.488037,416.341034 
	C2050.137939,416.341034 2053.283447,416.574310 2056.379150,416.280853 
	C2060.087158,415.929352 2061.968750,417.287903 2063.438965,420.803406 
	C2066.702393,428.607819 2070.456543,436.214111 2074.235596,443.789032 
	C2074.908203,445.137115 2076.629395,446.805511 2077.926758,446.858734 
	C2085.169922,447.155731 2092.431641,447.001465 2100.302734,447.001465 
	C2094.800781,435.355957 2089.585205,424.316895 2084.257080,413.039001 
	C2090.367188,409.049988 2094.174561,403.445831 2094.771973,396.622467 
	C2095.461914,388.741760 2095.722900,380.630249 2094.638428,372.831879 
	C2092.936523,360.589874 2086.283447,354.552643 2073.909912,352.817474 
	C2068.180420,352.014008 2062.306396,352.238098 2055.499268,351.996277 
M1637.752197,437.227966 
	C1637.752197,422.315796 1637.752197,407.403656 1637.752197,392.506531 
	C1626.654175,392.506531 1616.388672,392.506531 1605.944458,392.506531 
	C1605.944458,398.171265 1605.944458,403.575439 1605.944458,409.619629 
	C1609.599609,409.619629 1612.980957,409.619629 1616.300537,409.619629 
	C1616.300537,417.006439 1616.300537,423.745941 1616.300537,430.537170 
	C1607.205566,430.537170 1598.469849,430.537170 1589.432129,430.537170 
	C1589.432129,412.894257 1589.251953,395.582275 1589.530884,378.277649 
	C1589.627075,372.310028 1592.599854,369.712006 1598.698242,369.132874 
	C1602.491333,368.772644 1606.357178,368.706329 1610.155884,368.982849 
	C1617.053833,369.484955 1623.926147,370.341095 1630.839478,371.052582 
	C1631.764771,364.997742 1632.640137,359.270447 1633.594604,353.025452 
	C1618.192749,349.545593 1603.115845,348.410553 1587.863281,351.577057 
	C1577.085449,353.814636 1570.444458,360.643646 1568.163818,371.086700 
	C1563.921631,390.510712 1564.103149,410.106598 1568.087891,429.556580 
	C1570.146240,439.603394 1576.458496,446.222717 1586.805176,447.858582 
	C1602.272217,450.303955 1617.624878,449.677917 1632.750366,445.117035 
	C1636.511963,443.982819 1638.610962,442.294769 1637.752197,437.227966 
M2309.916016,444.723328 
	C2329.197510,452.322052 2348.365967,449.902008 2367.405029,443.820038 
	C2368.417969,443.496490 2369.229736,440.935883 2369.258301,439.400269 
	C2369.429443,430.246124 2369.343262,421.087158 2369.343262,411.929810 
	C2369.343262,405.476257 2369.343262,399.022675 2369.343262,392.619293 
	C2358.363770,392.619293 2347.973389,392.619293 2337.449219,392.619293 
	C2337.449219,398.260315 2337.449219,403.530273 2337.449219,409.377808 
	C2341.037354,409.377808 2344.434082,409.377808 2347.867188,409.377808 
	C2347.867188,416.835052 2347.867188,423.708374 2347.867188,430.479980 
	C2338.766113,430.479980 2330.051514,430.479980 2321.129639,430.479980 
	C2321.129639,412.947906 2321.040283,395.808258 2321.177979,378.670441 
	C2321.226074,372.681366 2324.227539,369.448029 2330.483154,369.174042 
	C2337.098145,368.884308 2343.759033,369.312439 2350.383789,369.698608 
	C2354.416748,369.933685 2358.419922,370.682190 2362.564697,371.216614 
	C2363.532227,364.812714 2364.392334,359.118835 2365.236328,353.533691 
	C2356.207520,350.015228 2336.556641,348.710541 2324.379639,350.676880 
	C2308.577148,353.228668 2301.556396,359.951141 2298.893066,375.567413 
	C2296.016113,392.436066 2296.255127,409.360809 2299.032715,426.207062 
	C2300.213867,433.369843 2302.763916,440.041138 2309.916016,444.723328 
M1942.538574,447.005615 
	C1953.695923,447.005615 1964.853149,447.005798 1976.010498,447.005585 
	C1986.618774,447.005371 1993.885254,438.968353 1992.708618,427.891602 
	C1980.243408,427.891602 1967.704224,427.891602 1955.370605,427.891602 
	C1955.370605,420.910706 1955.370605,414.512848 1955.370605,407.687683 
	C1966.464966,407.687683 1977.197266,407.687683 1987.782227,407.687683 
	C1987.782227,401.958679 1987.782227,396.678314 1987.782227,390.961060 
	C1976.837036,390.961060 1966.104614,390.961060 1955.367920,390.961060 
	C1955.367920,383.969849 1955.367920,377.432068 1955.367920,370.440430 
	C1967.305420,370.440430 1978.883423,370.440430 1990.417236,370.440430 
	C1990.417236,364.058868 1990.417236,358.147705 1990.417236,351.994385 
	C1979.604614,351.994385 1969.081543,352.584595 1958.658203,351.818695 
	C1949.325317,351.132904 1941.990845,353.523499 1935.766113,360.573700 
	C1933.535889,363.099670 1932.147949,365.207550 1932.169312,368.701355 
	C1932.318237,393.013306 1932.247925,417.326630 1932.247925,441.639496 
	C1932.247925,443.263000 1932.247803,444.886536 1932.247803,447.005615 
	C1935.657837,447.005615 1938.606812,447.005615 1942.538574,447.005615 
M1863.122192,417.514465 
	C1863.122192,414.419708 1863.122192,411.324951 1863.122192,407.776550 
	C1874.522583,407.776550 1885.257812,407.776550 1895.920288,407.776550 
	C1895.920288,402.021790 1895.920288,396.742004 1895.920288,390.982849 
	C1885.002197,390.982849 1874.272949,390.982849 1863.360474,390.982849 
	C1863.360474,384.092010 1863.360474,377.687805 1863.360474,370.695770 
	C1875.299194,370.695770 1887.016479,370.695770 1898.750000,370.695770 
	C1898.750000,364.185150 1898.750000,358.266144 1898.750000,351.998016 
	C1888.215454,351.998016 1877.885864,352.582062 1867.654663,351.828674 
	C1858.023071,351.119415 1850.241577,353.329102 1843.830688,360.791138 
	C1841.879150,363.062561 1840.573853,364.892883 1840.590576,368.032501 
	C1840.722656,392.838654 1840.659546,417.645782 1840.674561,442.452637 
	C1840.675415,443.877197 1840.831909,445.301666 1840.932251,447.001984 
	C1856.099976,447.001984 1870.893188,447.006927 1885.686401,447.000214 
	C1895.026978,446.995941 1902.948730,437.410065 1901.033813,427.857300 
	C1888.570068,427.857300 1876.003296,427.857300 1863.122192,427.857300 
	C1863.122192,424.423828 1863.122192,421.454468 1863.122192,417.514465 
M1362.664673,373.546143 
	C1362.664673,397.949463 1362.664673,422.352783 1362.664673,447.001465 
	C1377.864868,447.001465 1392.345093,447.002197 1406.825195,447.001221 
	C1416.931885,447.000549 1424.284424,438.480286 1422.792603,427.794617 
	C1410.340088,427.794617 1397.794678,427.794617 1385.393311,427.794617 
	C1385.393311,420.914886 1385.393311,414.646149 1385.393311,407.894226 
	C1396.395752,407.894226 1407.137329,407.894226 1417.782715,407.894226 
	C1417.782715,402.005463 1417.782715,396.612061 1417.782715,390.717712 
	C1406.721313,390.717712 1395.991455,390.717712 1385.503296,390.717712 
	C1385.503296,383.796326 1385.503296,377.391235 1385.503296,370.572327 
	C1397.482300,370.572327 1409.085205,370.572327 1420.760498,370.572327 
	C1420.760498,364.214203 1420.760498,358.292786 1420.760498,352.002960 
	C1406.229614,352.002960 1391.936279,351.998138 1377.642944,352.018860 
	C1376.999023,352.019775 1376.124146,352.025635 1375.745972,352.411041 
	C1370.027222,358.239227 1360.150635,361.402588 1362.664673,373.546143 
M1255.233643,290.499878 
	C1255.233643,346.443268 1255.232666,402.386627 1255.234863,458.330017 
	C1255.235107,464.723877 1256.762085,467.159851 1260.718018,467.125641 
	C1264.700562,467.091217 1266.136108,464.765533 1266.136353,458.271576 
	C1266.139160,386.177887 1266.138916,314.084229 1266.133301,241.990540 
	C1266.133179,240.493622 1266.614746,238.611618 1265.900513,237.584229 
	C1264.627441,235.752640 1262.659302,233.302124 1260.892212,233.227203 
	C1259.138916,233.152878 1256.970337,235.443970 1255.581421,237.176605 
	C1254.824951,238.120300 1255.244995,240.058578 1255.243530,241.548416 
	C1255.227661,257.532227 1255.233643,273.516022 1255.233643,290.499878 
M2151.006836,399.500000 
	C2151.006836,383.760406 2151.006836,368.020844 2151.006836,352.552063 
	C2142.934082,350.418732 2137.118896,353.089996 2131.878174,358.527771 
	C2129.531006,360.963409 2128.143066,363.056091 2128.164307,366.580780 
	C2128.315918,391.691376 2128.245117,416.803284 2128.245117,441.914795 
	C2128.245117,443.518921 2128.245117,445.123016 2128.245117,446.047424 
	C2137.397949,449.560608 2143.220703,445.042114 2148.419189,439.299164 
	C2149.698486,437.885681 2150.856445,435.751190 2150.893799,433.924286 
	C2151.120117,422.786682 2151.006836,411.642181 2151.006836,399.500000 
M1668.665405,415.499756 
	C1668.665405,425.903778 1668.665405,436.307831 1668.665405,446.512024 
	C1676.112305,448.124725 1681.613281,446.488434 1686.778931,441.362091 
	C1689.942505,438.222595 1691.235107,435.437286 1691.200684,431.144043 
	C1691.027100,409.517456 1691.120972,387.888702 1691.120972,366.260712 
	C1691.120972,361.646301 1691.120972,357.031891 1691.120972,352.558228 
	C1683.148438,350.342468 1677.384277,353.111938 1672.141479,358.497162 
	C1669.906494,360.792725 1668.546265,362.728546 1668.583984,366.087189 
	C1668.765625,382.222961 1668.665527,398.361908 1668.665405,415.499756 
M1562.991699,285.563599 
	C1563.271729,288.657074 1563.551636,291.750519 1563.824707,294.768646 
	C1568.802246,295.194580 1573.589233,292.795074 1573.440552,289.711334 
	C1572.841797,277.303345 1571.942261,264.909912 1571.136719,252.240143 
	C1567.926758,252.240143 1565.253052,252.465622 1562.633545,252.185455 
	C1559.027100,251.799744 1557.371216,253.001724 1556.535767,256.725922 
	C1554.934326,263.865875 1552.690186,270.861694 1550.712646,277.917267 
	C1550.414673,277.913910 1550.116699,277.910522 1549.818726,277.907166 
	C1547.397339,269.389191 1544.975830,260.871216 1542.523071,252.242874 
	C1540.082642,252.242874 1537.742676,251.572372 1536.188110,252.391861 
	C1533.508911,253.804321 1529.482178,255.931198 1529.227539,258.129669 
	C1527.820679,270.276825 1527.383179,282.536285 1526.613892,294.751282 
	C1530.402710,294.751282 1533.615723,294.751282 1536.794067,294.751282 
	C1537.322754,286.397339 1537.827515,278.423096 1538.332153,270.448853 
	C1538.654175,270.411194 1538.976318,270.373535 1539.298340,270.335876 
	C1541.592407,278.538086 1543.886597,286.740326 1546.149414,294.830688 
	C1554.243652,295.492950 1554.216431,295.485626 1556.127808,288.369019 
	C1557.791016,282.176147 1559.525391,276.002411 1561.228394,269.820221 
	C1561.519897,269.851868 1561.811401,269.883484 1562.103027,269.915131 
	C1562.398315,274.817108 1562.693604,279.719086 1562.991699,285.563599 
M1639.979248,252.279556 
	C1636.159180,252.279556 1632.339233,252.279556 1628.286499,252.279556 
	C1625.834595,260.939148 1623.415161,269.484070 1620.995850,278.028992 
	C1618.087769,270.622101 1616.099609,263.265991 1613.965820,255.952332 
	C1613.583984,254.643158 1612.789307,252.637238 1611.863892,252.436752 
	C1605.970093,251.159744 1599.001587,253.264526 1598.947998,260.628662 
	C1598.913086,265.437927 1598.382202,270.242767 1598.101318,275.051239 
	C1597.717041,281.626984 1597.359253,288.204285 1596.982544,294.917542 
	C1600.581665,294.917542 1603.679199,294.917542 1607.034668,294.917542 
	C1607.601685,286.698425 1608.155151,278.674164 1608.708618,270.649902 
	C1609.059448,270.652893 1609.410400,270.655884 1609.761230,270.658844 
	C1612.003418,278.742462 1614.245605,286.826080 1616.480591,294.883728 
	C1619.456299,294.883728 1622.065063,294.883728 1624.645630,294.883728 
	C1626.926758,286.718903 1629.141357,278.792114 1631.356079,270.865295 
	C1631.736206,270.929230 1632.116333,270.993164 1632.496460,271.057098 
	C1633.017090,278.942902 1633.537720,286.828705 1634.054565,294.657745 
	C1641.158936,295.542297 1644.274170,292.669556 1643.757446,286.065308 
	C1643.459229,282.254120 1643.335815,278.428406 1642.993896,274.621765 
	C1642.331055,267.245392 1641.569702,259.877869 1639.979248,252.279556 
M2294.170410,296.088409 
	C2303.037109,294.907196 2306.566895,292.514343 2307.487549,284.644714 
	C2308.327393,277.462067 2308.262695,270.028595 2307.443359,262.837006 
	C2306.593262,255.370697 2303.164062,252.551498 2295.590088,251.765961 
	C2291.182861,251.308853 2286.655518,251.528244 2282.223389,251.914612 
	C2276.616943,252.403320 2272.491211,255.723114 2272.086426,261.231140 
	C2271.460205,269.749512 2271.565186,278.381622 2272.180176,286.906372 
	C2272.494141,291.257935 2275.807617,294.462830 2280.394775,295.153442 
	C2284.632812,295.791443 2288.960938,295.829712 2294.170410,296.088409 
M2167.984619,257.726410 
	C2164.893555,255.762451 2162.011963,252.756729 2158.661621,252.084152 
	C2153.900146,251.128296 2148.763428,251.552567 2143.843750,252.005127 
	C2138.469727,252.499512 2134.552246,255.865341 2134.115479,261.163422 
	C2133.452393,269.205109 2133.504150,277.352844 2133.922363,285.420807 
	C2134.225830,291.277039 2138.176758,294.999237 2143.888672,295.519653 
	C2149.441895,296.025635 2155.134521,295.720490 2160.700928,295.143799 
	C2165.300781,294.667236 2168.149902,291.354248 2169.042969,286.955383 
	C2170.977783,277.426697 2171.437988,267.862335 2167.984619,257.726410 
M2110.128174,272.541504 
	C2109.967529,255.182526 2106.027832,249.556564 2085.202637,251.688904 
	C2084.706787,251.739670 2084.211914,251.804871 2083.719482,251.882431 
	C2078.416504,252.717972 2074.309570,255.598160 2073.874512,260.938110 
	C2073.195557,269.274109 2073.124512,277.725739 2073.666992,286.071747 
	C2074.028076,291.629303 2078.185547,294.999237 2083.656738,295.580963 
	C2088.567139,296.103027 2093.617432,296.142395 2098.526855,295.632751 
	C2104.699463,294.991974 2108.320801,291.059113 2109.161621,284.895721 
	C2109.675293,281.127197 2109.818848,277.308136 2110.128174,272.541504 
M1422.128174,280.711578 
	C1422.880737,279.730865 1423.569458,277.971069 1424.396973,277.903229 
	C1428.135498,277.597015 1431.913330,277.769440 1436.140869,277.769440 
	C1436.140869,283.881866 1436.140869,289.440247 1436.140869,294.962097 
	C1441.913086,295.192627 1446.193726,293.039001 1446.253662,289.511047 
	C1446.462158,277.232391 1446.334229,264.948029 1446.334229,252.617798 
	C1442.608398,252.617798 1439.398682,252.617798 1435.797119,252.617798 
	C1435.797119,258.574341 1435.797119,264.163910 1435.797119,269.589783 
	C1431.012573,269.589783 1426.635620,269.589783 1421.860840,269.589783 
	C1421.860840,263.590057 1421.860840,257.994598 1421.860840,252.427826 
	C1414.704834,252.171341 1411.888306,254.745438 1411.874390,261.165985 
	C1411.868652,263.829285 1411.873413,266.492554 1411.873413,269.155853 
	C1411.873413,277.741699 1411.873413,286.327515 1411.873413,294.844727 
	C1415.627441,294.844727 1418.711182,294.844727 1422.126831,294.844727 
	C1422.126831,290.272644 1422.126831,285.974884 1422.128174,280.711578 
M1782.319458,261.789520 
	C1779.335449,272.745575 1776.351318,283.701599 1773.295776,294.920105 
	C1777.090942,294.920105 1780.202148,294.920105 1783.448853,294.920105 
	C1784.270386,292.282623 1785.044556,289.797455 1785.850708,287.209595 
	C1790.629517,287.209595 1795.228149,287.209595 1799.896729,287.209595 
	C1800.717407,289.876190 1801.488525,292.382141 1802.236084,294.811401 
	C1807.312378,295.144196 1811.648804,292.329498 1810.798462,289.081635 
	C1807.577637,276.779266 1804.097534,264.544739 1800.776733,252.510345 
	C1787.263672,250.937592 1783.944458,254.225967 1782.319458,261.789520 
M1495.339600,254.003998 
	C1490.671021,249.815247 1479.686279,251.842758 1477.820679,257.785675 
	C1474.008789,269.927887 1470.883057,282.285492 1467.377319,294.905029 
	C1471.183960,294.905029 1474.442261,294.905029 1477.628540,294.905029 
	C1478.484375,292.180359 1479.270264,289.678680 1480.012939,287.314087 
	C1484.894043,287.314087 1489.475098,287.314087 1494.134399,287.314087 
	C1494.570923,288.834991 1494.909058,290.108643 1495.304321,291.364319 
	C1495.690430,292.590637 1496.134644,293.798615 1496.522949,294.926422 
	C1503.309448,295.125061 1505.757446,292.156677 1504.103394,286.003143 
	C1501.303833,275.588593 1498.479614,265.180756 1495.339600,254.003998 
M1681.683105,287.012024 
	C1684.667358,287.012024 1687.651611,287.012024 1690.744385,287.012024 
	C1691.661377,289.834015 1692.512329,292.452728 1693.328003,294.962891 
	C1698.639160,295.028534 1702.588867,292.152740 1701.707153,288.816071 
	C1698.493408,276.654541 1695.084717,264.544556 1691.700806,252.238388 
	C1688.576172,252.238388 1685.534058,251.566742 1682.997192,252.411972 
	C1679.967773,253.421326 1675.673706,255.164017 1674.872559,257.569824 
	C1670.815430,269.753784 1667.714600,282.256165 1664.227539,294.830231 
	C1668.075073,294.830231 1671.334229,294.830231 1674.300903,294.830231 
	C1676.396606,291.814423 1674.457397,286.022522 1681.683105,287.012024 
M2046.226562,252.264862 
	C2043.605713,252.264862 2040.984863,252.264862 2037.739746,252.264862 
	C2037.739746,258.437195 2037.739746,264.152191 2037.739746,269.721283 
	C2032.837158,269.721283 2028.569824,269.721283 2023.931152,269.721283 
	C2023.931152,263.852203 2023.931152,258.246155 2023.931152,252.700485 
	C2018.239014,252.039017 2013.990845,254.349457 2013.937256,258.344452 
	C2013.774780,270.458008 2013.878418,282.575134 2013.878418,294.906158 
	C2017.406738,294.906158 2020.478516,294.906158 2024.065308,294.906158 
	C2024.065308,289.154663 2024.065308,283.582520 2024.065308,278.003265 
	C2028.848022,278.003265 2033.112305,278.003265 2037.908447,278.003265 
	C2037.908447,283.814880 2037.908447,289.391052 2037.908447,294.925751 
	C2045.571289,295.306976 2048.123291,292.945374 2048.125732,285.980896 
	C2048.129150,276.317963 2048.169189,266.654602 2048.082764,256.992462 
	C2048.069092,255.446274 2047.476196,253.905289 2046.226562,252.264862 
M1909.168945,272.006256 
	C1913.605591,280.252716 1922.533813,276.901703 1929.082520,279.549347 
	C1929.082520,282.016144 1929.082520,284.315857 1929.082520,286.827362 
	C1928.047607,287.084808 1927.100708,287.543213 1926.169800,287.512909 
	C1922.354736,287.388672 1918.542114,287.148804 1914.733032,286.887604 
	C1910.938599,286.627319 1908.628784,288.595673 1908.052490,292.059174 
	C1907.405029,295.951691 1910.967041,295.080017 1912.887939,295.259491 
	C1918.168335,295.752777 1923.517944,296.239594 1928.790161,295.915222 
	C1936.717529,295.427490 1940.221558,291.216034 1940.353394,283.165375 
	C1940.511475,273.514008 1936.789673,269.896057 1925.776611,268.994934 
	C1918.507324,268.400146 1918.302368,268.097595 1920.126831,260.180084 
	C1923.675293,260.180084 1927.308960,260.176239 1930.942505,260.181061 
	C1935.117554,260.186646 1937.486206,257.762848 1937.819214,252.260483 
	C1931.907104,251.938644 1925.976685,251.126297 1920.099854,251.413055 
	C1911.728760,251.821503 1908.395264,255.782166 1908.278687,264.328583 
	C1908.247314,266.631561 1908.702026,268.941162 1909.168945,272.006256 
M1751.640137,272.868500 
	C1745.910278,271.058228 1740.180420,269.247986 1734.121582,267.333771 
	C1734.121582,265.579010 1734.121582,263.022491 1734.121582,260.181854 
	C1738.112427,260.181854 1741.747070,260.164368 1745.381470,260.186432 
	C1749.611694,260.212128 1751.857544,257.890930 1752.145874,252.016876 
	C1744.895630,252.016876 1737.621582,251.429901 1730.495605,252.205002 
	C1724.926025,252.810822 1722.652710,257.608490 1722.649780,265.464172 
	C1722.647095,272.595886 1724.472778,275.687988 1730.312012,277.132233 
	C1734.618774,278.197449 1739.083252,278.624634 1743.612793,279.357971 
	C1743.612793,281.902618 1743.612793,284.307800 1743.612793,286.898315 
	C1742.118774,287.167542 1740.829102,287.614258 1739.549316,287.587555 
	C1736.562256,287.525146 1733.572998,287.309052 1730.597412,287.021423 
	C1725.028198,286.483063 1722.927979,288.268372 1722.451782,295.002441 
	C1728.361450,295.379608 1734.268677,295.951019 1740.185059,296.075104 
	C1745.274902,296.181885 1750.533569,295.613007 1753.142822,290.405792 
	C1755.988525,284.727051 1756.018555,278.873199 1751.640137,272.868500 
M1973.010620,270.612976 
	C1973.010620,269.615875 1973.006958,268.618805 1973.010986,267.621704 
	C1973.039307,260.651245 1973.767578,259.873352 1980.771729,260.042755 
	C1983.683350,260.113159 1986.586548,260.533508 1989.682373,260.811707 
	C1990.070435,257.941010 1990.413330,255.403671 1990.902100,251.788513 
	C1984.805542,251.788513 1979.212036,251.380539 1973.705078,251.896561 
	C1967.475830,252.480286 1963.667114,255.825226 1963.146484,261.963104 
	C1962.479126,269.830811 1962.578003,277.822723 1963.097900,285.711609 
	C1963.459351,291.195160 1967.090332,295.095398 1972.661011,295.631348 
	C1978.641479,296.206665 1984.719971,295.761261 1991.348877,295.761261 
	C1990.986572,291.715485 1990.744873,289.017090 1990.557861,286.928345 
	C1984.459717,286.928345 1978.951050,286.928345 1973.010620,286.928345 
	C1973.010620,281.481262 1973.010620,276.532654 1973.010620,270.612976 
M2332.652832,265.671265 
	C2332.652832,275.403229 2332.652832,285.135223 2332.652832,294.899841 
	C2336.420166,294.899841 2339.511719,294.899841 2343.091553,294.899841 
	C2343.091553,289.448944 2343.091553,284.214478 2343.091553,278.631409 
	C2347.343506,278.631409 2351.104492,278.631409 2354.986572,278.631409 
	C2354.986572,275.889923 2354.986572,273.525055 2354.986572,270.826111 
	C2350.861572,270.826111 2347.094971,270.826111 2343.282227,270.826111 
	C2343.282227,267.421082 2343.282227,264.362305 2343.282227,261.007233 
	C2346.016113,261.007233 2348.483398,261.007202 2350.950684,261.007202 
	C2353.553955,261.007202 2356.157227,261.007233 2358.754395,261.007233 
	C2358.754395,257.856018 2358.754395,255.274185 2358.754395,252.245438 
	C2354.061523,252.245438 2349.609131,252.245331 2345.156738,252.245453 
	C2335.122070,252.245758 2332.653320,254.710770 2332.652832,265.671265 
M1390.784058,252.903549 
	C1382.874634,252.691345 1374.959351,252.209991 1367.058472,252.383820 
	C1363.275635,252.467041 1359.981812,257.331146 1360.544067,261.141998 
	C1363.596680,261.141998 1366.701538,261.141998 1370.225098,261.141998 
	C1370.225098,272.534088 1370.225098,283.596680 1370.225098,294.585052 
	C1377.325317,295.694794 1380.352539,293.231812 1380.362305,286.717316 
	C1380.375000,278.285492 1380.365356,269.853638 1380.365356,261.234955 
	C1384.170776,261.068573 1387.560303,260.920380 1390.991577,260.770386 
	C1390.991577,258.122528 1390.991577,255.964020 1390.784058,252.903549 
M1858.146484,254.705795 
	C1857.234497,253.877991 1856.343018,252.360657 1855.407104,252.332611 
	C1848.580811,252.127991 1841.741943,252.088135 1834.914673,252.274994 
	C1831.017578,252.381668 1827.213867,256.910339 1827.380493,261.240051 
	C1830.600952,261.240051 1833.843018,261.240051 1837.354248,261.240051 
	C1837.354248,272.714874 1837.354248,283.683685 1837.354248,294.599518 
	C1844.480469,295.749908 1847.770264,293.109650 1847.779907,286.478912 
	C1847.791992,278.064819 1847.782715,269.650726 1847.782715,260.893097 
	C1851.600952,260.893097 1854.704590,260.893097 1858.151001,260.893097 
	C1858.151001,258.904236 1858.151001,257.273682 1858.146484,254.705795 
M2202.671631,252.257416 
	C2196.961914,252.926453 2194.681885,255.318924 2194.667725,260.729614 
	C2194.649170,267.888519 2194.663330,275.047485 2194.663330,282.206421 
	C2194.663330,286.442169 2194.663330,290.677948 2194.663330,295.119263 
	C2201.078613,295.119263 2206.728516,295.257202 2212.367920,295.075470 
	C2216.852295,294.931000 2219.438965,291.168793 2218.235352,286.535950 
	C2214.047607,286.535950 2209.765869,286.535950 2205.001953,286.535950 
	C2205.001953,276.430237 2205.065918,266.655396 2204.935791,256.883118 
	C2204.915039,255.342514 2204.014893,253.813614 2202.671631,252.257416 
M321.192749,363.511078 
	C321.192749,363.511078 321.403992,363.589722 321.403992,363.589722 
	C321.403992,363.589722 321.346588,363.399536 321.192749,363.511078 
z"/>
<path fill="#FFFEFE" opacity="1.000000" stroke="none" 
	d="
M142.692047,334.701141 
	C142.811295,332.407196 142.486389,330.425751 143.078964,328.773315 
	C146.140442,320.236176 141.652451,316.473724 134.534912,313.274384 
	C125.910835,309.397766 117.779747,304.438385 109.275780,300.273285 
	C106.207520,298.770538 104.951668,297.143616 106.058220,293.803925 
	C110.753357,279.633392 115.430847,265.456543 119.993767,251.243149 
	C120.952576,248.256516 122.653442,247.589722 125.566757,248.037094 
	C137.572845,249.880707 149.637848,251.366302 161.602203,253.439407 
	C164.906540,254.011963 165.950333,252.732285 167.261993,250.345703 
	C175.320312,235.683395 185.083298,222.233414 196.643677,210.137177 
	C198.700851,207.984619 198.969131,206.297470 197.622574,203.653366 
	C191.596939,191.821457 185.774963,179.885818 179.323395,166.865387 
	C193.547333,156.555161 207.740067,146.267548 222.100464,135.858414 
	C232.322281,145.803619 241.819504,154.872314 251.081619,164.175095 
	C253.417480,166.521194 255.090134,167.102783 258.290100,165.562546 
	C272.872559,158.543533 288.151642,153.429962 304.132019,150.760437 
	C308.446564,150.039688 309.593140,148.071625 310.170990,144.045029 
	C311.871094,132.197998 314.109039,120.427925 316.164368,108.632599 
	C316.303589,107.833534 316.674683,107.074875 317.160767,105.639420 
	C334.470337,105.639420 351.878967,105.639420 369.630066,105.639420 
	C372.251984,120.666389 374.756195,135.018616 377.007538,147.921692 
	C393.791962,153.699600 409.899811,158.788574 425.604431,164.911606 
	C430.726105,166.908478 433.532654,166.502533 437.007843,162.582367 
	C445.070648,153.487045 453.498108,144.714951 461.678741,135.918243 
	C478.358093,145.281677 492.160919,155.286850 504.814392,166.856049 
	C505.591064,167.566132 505.371948,170.170685 504.748169,171.480392 
	C499.534576,182.427170 494.198425,193.318192 488.701508,204.125443 
	C487.417511,206.649811 487.206909,208.231064 489.407959,210.516647 
	C501.014862,222.569550 510.693542,236.089371 518.698303,250.772141 
	C519.996643,253.153580 521.110291,254.067337 524.002869,253.593018 
	C536.147461,251.601608 548.361145,250.033524 560.513428,248.085297 
	C563.446350,247.615097 564.855347,248.551773 565.703796,251.172623 
	C570.403748,265.690979 575.136414,280.198792 579.873718,294.705048 
	C580.740662,297.359772 579.897461,298.850250 577.321411,300.160400 
	C566.507446,305.660126 555.862244,311.491425 545.052612,317.000031 
	C542.436768,318.333038 541.847168,319.781311 541.895142,322.741730 
	C542.161682,339.185852 542.173096,355.638763 541.909058,372.082855 
	C541.858276,375.244812 542.580566,376.693909 545.377441,378.106628 
	C556.058044,383.501282 566.501892,389.366180 577.204956,394.713715 
	C580.145935,396.183105 580.659302,397.890564 579.790833,400.566284 
	C575.128540,414.929413 570.416199,429.276337 565.777161,443.646881 
	C564.846252,446.530640 563.244629,447.303894 560.184875,446.805603 
	C548.032410,444.826569 535.845642,443.038330 523.634766,441.465302 
	C522.213318,441.282196 519.828491,442.465820 519.129883,443.711182 
	C510.286560,459.475616 499.683685,473.915009 486.938080,487.168549 
	C493.379272,500.280548 499.800171,513.351257 506.838867,527.679565 
	C492.721893,537.970459 478.539581,548.308960 463.248413,559.455750 
	C452.938354,548.058167 443.142090,537.228516 434.726227,527.924866 
	C414.091736,534.644714 396.012665,540.532410 377.067047,546.702271 
	C374.797516,559.717529 372.292755,574.081970 369.765320,588.576294 
	C352.571320,590.642517 335.643188,590.633240 318.723297,588.843323 
	C317.712219,588.736389 316.335083,586.756104 316.100739,585.470337 
	C313.894836,573.367920 312.005371,561.207031 309.719696,549.120728 
	C309.416656,547.518250 307.610809,545.256348 306.160004,544.958191 
	C288.327545,541.292419 271.122894,535.818176 253.053314,526.992188 
	C243.613892,537.564514 233.874512,548.472839 224.061401,559.463745 
	C214.962830,553.591125 207.459183,548.747986 199.587433,543.667175 
	C223.043289,511.619354 246.220322,479.952484 269.593201,448.018036 
	C300.208252,469.229828 333.672882,476.899078 370.104340,468.832489 
	C398.186249,462.614594 421.341034,447.976074 439.565857,425.698608 
	C475.887695,381.299866 476.555939,316.918152 441.233154,271.320374 
	C405.757996,225.525787 343.656097,210.354172 290.787140,234.387360 
	C243.528503,255.870224 203.119446,314.511078 224.222336,385.786011 
	C186.986374,397.744080 149.739517,409.705688 111.582802,421.959473 
	C109.536858,413.863098 107.487679,406.223114 105.816704,398.501343 
	C105.624672,397.613922 107.316406,395.850922 108.517273,395.203491 
	C118.902855,389.604340 129.264801,383.937531 139.882446,378.805328 
	C143.701370,376.959442 143.994049,374.714417 143.800369,371.029205 
	C143.172806,359.087799 143.011810,347.121887 142.692047,334.701141 
z"/>
<path fill="#FFFEFE" opacity="1.000000" stroke="none" 
	d="
M872.872131,366.160339 
	C870.861816,365.664490 869.243958,365.283936 867.650696,364.819183 
	C847.544556,358.954346 836.999817,345.304199 835.251099,324.678040 
	C834.121582,311.356445 834.252563,298.035675 837.403137,284.963898 
	C842.633057,263.265167 856.074097,251.170212 879.819763,248.157791 
	C910.002380,244.328751 939.931519,247.208008 969.572937,253.592941 
	C970.193115,253.726547 970.777405,254.027313 971.611633,254.336533 
	C970.945923,258.870605 970.526184,263.332275 969.546875,267.667603 
	C969.110779,269.598572 967.878906,271.621735 966.433716,273.001129 
	C962.342773,276.905701 957.606506,280.177155 953.785645,284.309357 
	C950.218262,288.167450 946.318176,287.942444 941.676514,287.820068 
	C923.913452,287.351685 906.137085,287.378204 888.365417,287.271942 
	C887.411926,287.266235 886.455566,287.735016 885.328369,288.027588 
	C885.328369,300.550964 885.328369,312.986298 885.328369,325.876923 
	C897.124207,326.887909 908.919250,327.328094 920.520935,329.062531 
	C930.980896,330.626282 941.501831,332.793610 951.508484,336.148499 
	C967.646912,341.559174 976.976562,353.465637 980.205750,370.219086 
	C982.856812,383.972595 982.826477,397.711700 979.894958,411.355469 
	C975.311523,432.687683 961.088196,444.242859 940.560730,448.981842 
	C920.524658,453.607361 900.156311,453.283661 879.944336,451.401794 
	C865.110046,450.020630 850.463196,446.615601 835.739929,444.071594 
	C834.631714,443.880127 833.580200,443.360229 832.205811,442.892029 
	C833.134094,437.365753 833.999329,431.985046 834.975769,426.624634 
	C835.141846,425.712952 835.575684,424.655670 836.239563,424.059662 
	C841.814514,419.054688 847.385742,414.035919 853.187683,409.302734 
	C854.177002,408.495728 856.328186,408.693268 857.828003,408.995483 
	C876.219421,412.701599 894.804932,413.580475 913.487915,412.834381 
	C919.431824,412.597046 925.355530,411.856445 931.445190,411.332642 
	C931.445190,398.481903 931.445190,386.207092 931.445190,374.187469 
	C911.967896,371.525146 892.621948,368.880798 872.872131,366.160339 
z"/>
<path fill="#FFFFFF" opacity="1.000000" stroke="none" 
	d="
M1035.000000,294.001038 
	C1032.698120,280.979340 1037.991699,272.735840 1047.429199,264.269531 
	C1058.294067,254.522797 1068.914917,249.839417 1083.682007,250.672745 
	C1105.935425,251.928528 1128.312012,251.000046 1150.636230,251.000046 
	C1152.276611,251.000046 1153.916870,251.000061 1155.831787,251.000061 
	C1155.831787,264.037781 1155.831787,276.759918 1155.831787,289.894348 
	C1131.365356,289.894348 1106.957397,289.894348 1082.276367,289.894348 
	C1082.276367,304.029694 1082.276367,317.757538 1082.276367,332.005127 
	C1104.892456,332.005127 1127.448242,332.005127 1150.164307,332.005127 
	C1150.164307,343.810730 1150.164307,355.099457 1150.164307,366.897003 
	C1127.568604,366.897003 1105.007568,366.897003 1082.226196,366.897003 
	C1082.226196,381.011627 1082.226196,394.621765 1082.226196,408.807068 
	C1108.450806,408.807068 1134.818237,408.807068 1161.734131,408.807068 
	C1161.734131,414.818024 1161.907227,420.273376 1161.612793,425.703369 
	C1161.538818,427.065857 1160.185425,428.591949 1159.042236,429.624603 
	C1152.870605,435.199341 1146.641602,440.715698 1140.278076,446.068665 
	C1139.022583,447.124756 1137.092529,447.915497 1135.470825,447.920227 
	C1102.484985,448.016510 1069.498535,447.980957 1036.512329,447.961182 
	C1036.203369,447.960999 1035.894287,447.817627 1035.000000,447.596130 
	C1035.000000,396.655243 1035.000000,345.578003 1035.000000,294.001038 
z"/>
<path fill="#FEFEFE" opacity="1.000000" stroke="none" 
	d="
M796.747131,279.951294 
	C796.747131,283.414398 796.747131,286.386292 796.747131,289.883179 
	C780.685120,289.883179 764.957764,289.883179 748.747131,289.883179 
	C748.747131,292.182312 748.747070,293.960571 748.747070,295.738831 
	C748.747070,338.070465 748.696716,380.402283 748.834656,422.733490 
	C748.846802,426.460205 747.758789,428.860138 744.841797,431.136261 
	C739.596252,435.229370 734.462097,439.531189 729.745911,444.213715 
	C726.599365,447.337952 723.286194,448.293915 719.052612,448.072113 
	C713.588013,447.785797 708.097107,448.002350 702.166138,448.002350 
	C702.166138,395.370728 702.166138,342.972412 702.166138,290.173401 
	C686.128235,290.173401 670.533875,290.173401 654.713074,290.173401 
	C653.806396,282.170410 653.005920,275.145813 660.966370,269.748627 
	C667.943787,265.017914 673.823669,258.683411 680.313171,253.205185 
	C681.594055,252.123901 683.441711,251.094452 685.031311,251.089371 
	C722.022827,250.971436 759.014709,250.998154 796.747131,250.998154 
	C796.747131,260.613983 796.747131,270.037018 796.747131,279.951294 
z"/>
<path fill="#FEFEFD" opacity="1.000000" stroke="none" 
	d="
M300.403259,392.425720 
	C264.783722,441.057495 229.394958,489.413147 193.947388,537.849121 
	C193.307266,537.500549 192.877548,537.337646 192.531296,537.067688 
	C183.036545,529.664001 183.039581,529.662964 188.307877,518.717651 
	C192.199966,510.631470 195.964920,502.480896 200.027283,494.481293 
	C202.092468,490.414520 201.316208,487.365997 198.237839,484.199036 
	C186.450729,472.072815 176.578094,458.506805 168.674088,443.555298 
	C166.409302,439.271118 163.498489,437.816467 158.549667,438.612793 
	C147.545441,440.383362 136.432190,441.466003 125.385933,442.992340 
	C122.148094,443.439697 120.019981,442.911835 119.032310,439.388794 
	C118.101257,436.067719 116.689529,432.881378 115.317734,429.171997 
	C183.835114,407.188324 252.043884,385.303680 320.252655,363.419037 
	C320.456940,363.744110 320.661224,364.069183 320.865509,364.394257 
	C314.121704,373.646027 307.377869,382.897827 300.403259,392.425720 
z"/>
<path fill="#FEFDFD" opacity="1.000000" stroke="none" 
	d="
M2209.899414,353.712433 
	C2220.889404,371.488007 2231.700684,388.910400 2241.967285,405.454895 
	C2241.967285,388.762756 2241.967285,370.686157 2241.967285,352.304047 
	C2249.478760,352.304047 2256.729004,352.304047 2264.486328,352.304047 
	C2264.568359,353.589630 2264.737061,355.010284 2264.738037,356.431030 
	C2264.753906,381.910370 2264.837402,407.390503 2264.605713,432.867737 
	C2264.583984,435.275421 2263.045410,438.123199 2261.339355,439.954926 
	C2258.803223,442.677917 2255.812256,445.715546 2252.438477,446.763672 
	C2245.700684,448.856781 2242.685547,447.052612 2238.817139,440.796387 
	C2230.599854,427.507782 2222.352051,414.237793 2214.203613,400.907043 
	C2212.487793,398.099823 2211.145752,395.064392 2209.395996,391.678772 
	C2209.395996,410.118988 2209.395996,428.218994 2209.395996,446.660126 
	C2201.734619,446.660126 2194.491211,446.660126 2186.658936,446.660126 
	C2186.658936,445.153229 2186.658936,443.546173 2186.658936,441.939148 
	C2186.658936,417.459015 2186.715576,392.978577 2186.591309,368.499054 
	C2186.574707,365.224976 2187.316406,362.828400 2190.017578,360.825989 
	C2192.815186,358.752014 2195.231689,356.171570 2197.945312,353.973755 
	C2201.668701,350.957794 2205.668457,351.143036 2209.899414,353.712433 
z"/>
<path fill="#FEFDFD" opacity="1.000000" stroke="none" 
	d="
M1533.002930,403.000000 
	C1533.002930,411.995239 1532.660156,420.509125 1533.121460,428.979248 
	C1533.438110,434.796295 1531.793823,438.833038 1527.147095,442.579346 
	C1523.267944,445.706818 1519.665283,447.452484 1514.648438,447.140167 
	C1511.765015,446.960663 1510.252319,446.046906 1508.793945,443.650360 
	C1498.560913,426.834595 1488.171631,410.113922 1477.443359,392.732574 
	C1477.443359,411.059998 1477.443359,428.899414 1477.443359,446.854126 
	C1469.724854,446.854126 1462.601196,446.854126 1455.129395,446.854126 
	C1455.040405,445.297089 1454.887939,443.863281 1454.887085,442.429413 
	C1454.872559,417.776581 1454.939331,393.123444 1454.801880,368.471375 
	C1454.783447,365.163940 1455.611694,362.813995 1458.290894,360.846497 
	C1460.831177,358.980988 1463.076416,356.716064 1465.473755,354.652924 
	C1470.899170,349.984100 1476.372070,350.792542 1480.078735,356.772980 
	C1488.050293,369.633820 1496.057617,382.472595 1503.991089,395.356903 
	C1505.971313,398.572968 1507.726440,401.927734 1510.040527,406.025452 
	C1510.040527,387.742798 1510.040527,370.153076 1510.040527,352.283997 
	C1517.899902,352.283997 1525.144165,352.283997 1533.002930,352.283997 
	C1533.002930,368.991943 1533.002930,385.745972 1533.002930,403.000000 
z"/>
<path fill="#FEFDFD" opacity="1.000000" stroke="none" 
	d="
M1779.470459,441.605072 
	C1769.557861,425.534729 1759.863892,409.763763 1749.541504,392.970551 
	C1749.541504,411.517700 1749.541504,429.017883 1749.541504,446.757019 
	C1741.754272,446.757019 1734.530396,446.757019 1726.876587,446.757019 
	C1726.876587,444.940613 1726.876465,443.321228 1726.876465,441.701843 
	C1726.876465,417.390045 1726.970703,393.077515 1726.777100,368.767273 
	C1726.747314,365.031616 1727.769287,362.537048 1730.746704,360.410309 
	C1733.170532,358.679047 1735.230347,356.445221 1737.503906,354.495209 
	C1742.670288,350.064423 1748.392578,350.868500 1751.857666,356.463959 
	C1760.083252,369.747131 1768.348389,383.006042 1776.514893,396.325500 
	C1778.401367,399.402252 1779.956055,402.682495 1782.051392,406.593170 
	C1782.051392,388.190033 1782.051392,370.322540 1782.051392,352.232239 
	C1789.988159,352.232239 1797.233765,352.232239 1804.838623,352.232239 
	C1804.895996,353.425964 1804.995972,354.538513 1804.996338,355.651093 
	C1805.005127,381.461548 1805.080078,407.272644 1804.867920,433.081360 
	C1804.849365,435.327545 1803.468140,438.167023 1801.777344,439.672180 
	C1797.991821,443.042328 1795.003052,447.557190 1788.535156,447.243958 
	C1784.067627,447.027588 1781.363403,445.824707 1779.470459,441.605072 
z"/>
<path fill="#FEFDFD" opacity="1.000000" stroke="none" 
	d="
M2055.998535,351.996277 
	C2062.306396,352.238098 2068.180420,352.014008 2073.909912,352.817474 
	C2086.283447,354.552643 2092.936523,360.589874 2094.638428,372.831879 
	C2095.722900,380.630249 2095.461914,388.741760 2094.771973,396.622467 
	C2094.174561,403.445831 2090.367188,409.049988 2084.257080,413.039001 
	C2089.585205,424.316895 2094.800781,435.355957 2100.302734,447.001465 
	C2092.431641,447.001465 2085.169922,447.155731 2077.926758,446.858734 
	C2076.629395,446.805511 2074.908203,445.137115 2074.235596,443.789032 
	C2070.456543,436.214111 2066.702393,428.607819 2063.438965,420.803406 
	C2061.968750,417.287903 2060.087158,415.929352 2056.379150,416.280853 
	C2053.283447,416.574310 2050.137939,416.341034 2046.488037,416.341034 
	C2046.488037,426.771942 2046.488037,436.682953 2046.488037,446.793793 
	C2038.839600,446.793793 2031.729980,446.793793 2023.875732,446.793793 
	C2023.875732,445.266998 2023.875610,443.693390 2023.875610,442.119751 
	C2023.875610,416.805176 2023.872681,391.490570 2023.877808,366.175995 
	C2023.878906,360.875580 2032.595093,352.083191 2038.012451,352.013336 
	C2043.840454,351.938171 2049.670166,351.996307 2055.998535,351.996277 
M2046.325195,385.495300 
	C2046.325195,389.938354 2046.325195,394.381439 2046.325195,399.085266 
	C2053.510498,399.085266 2060.128174,399.167603 2066.742188,399.050568 
	C2070.054443,398.991974 2072.017334,397.177307 2072.046631,393.733093 
	C2072.096191,387.923492 2072.091064,382.112976 2072.052979,376.303192 
	C2072.030273,372.835358 2070.033203,371.077972 2066.739014,371.020630 
	C2060.126221,370.905518 2053.510254,370.986420 2046.325195,370.986420 
	C2046.325195,375.610504 2046.325195,380.057526 2046.325195,385.495300 
z"/>
<path fill="#FEFCFC" opacity="1.000000" stroke="none" 
	d="
M1637.752197,437.689636 
	C1638.610962,442.294769 1636.511963,443.982819 1632.750366,445.117035 
	C1617.624878,449.677917 1602.272217,450.303955 1586.805176,447.858582 
	C1576.458496,446.222717 1570.146240,439.603394 1568.087891,429.556580 
	C1564.103149,410.106598 1563.921631,390.510712 1568.163818,371.086700 
	C1570.444458,360.643646 1577.085449,353.814636 1587.863281,351.577057 
	C1603.115845,348.410553 1618.192749,349.545593 1633.594604,353.025452 
	C1632.640137,359.270447 1631.764771,364.997742 1630.839478,371.052582 
	C1623.926147,370.341095 1617.053833,369.484955 1610.155884,368.982849 
	C1606.357178,368.706329 1602.491333,368.772644 1598.698242,369.132874 
	C1592.599854,369.712006 1589.627075,372.310028 1589.530884,378.277649 
	C1589.251953,395.582275 1589.432129,412.894257 1589.432129,430.537170 
	C1598.469849,430.537170 1607.205566,430.537170 1616.300537,430.537170 
	C1616.300537,423.745941 1616.300537,417.006439 1616.300537,409.619629 
	C1612.980957,409.619629 1609.599609,409.619629 1605.944458,409.619629 
	C1605.944458,403.575439 1605.944458,398.171265 1605.944458,392.506531 
	C1616.388672,392.506531 1626.654175,392.506531 1637.752197,392.506531 
	C1637.752197,407.403656 1637.752197,422.315796 1637.752197,437.689636 
z"/>
<path fill="#FEFDFC" opacity="1.000000" stroke="none" 
	d="
M2309.625977,444.495728 
	C2302.763916,440.041138 2300.213867,433.369843 2299.032715,426.207062 
	C2296.255127,409.360809 2296.016113,392.436066 2298.893066,375.567413 
	C2301.556396,359.951141 2308.577148,353.228668 2324.379639,350.676880 
	C2336.556641,348.710541 2356.207520,350.015228 2365.236328,353.533691 
	C2364.392334,359.118835 2363.532227,364.812714 2362.564697,371.216614 
	C2358.419922,370.682190 2354.416748,369.933685 2350.383789,369.698608 
	C2343.759033,369.312439 2337.098145,368.884308 2330.483154,369.174042 
	C2324.227539,369.448029 2321.226074,372.681366 2321.177979,378.670441 
	C2321.040283,395.808258 2321.129639,412.947906 2321.129639,430.479980 
	C2330.051514,430.479980 2338.766113,430.479980 2347.867188,430.479980 
	C2347.867188,423.708374 2347.867188,416.835052 2347.867188,409.377808 
	C2344.434082,409.377808 2341.037354,409.377808 2337.449219,409.377808 
	C2337.449219,403.530273 2337.449219,398.260315 2337.449219,392.619293 
	C2347.973389,392.619293 2358.363770,392.619293 2369.343262,392.619293 
	C2369.343262,399.022675 2369.343262,405.476257 2369.343262,411.929810 
	C2369.343262,421.087158 2369.429443,430.246124 2369.258301,439.400269 
	C2369.229736,440.935883 2368.417969,443.496490 2367.405029,443.820038 
	C2348.365967,449.902008 2329.197510,452.322052 2309.625977,444.495728 
z"/>
<path fill="#FEFCFC" opacity="1.000000" stroke="none" 
	d="
M1942.047119,447.005615 
	C1938.606812,447.005615 1935.657837,447.005615 1932.247803,447.005615 
	C1932.247803,444.886536 1932.247925,443.263000 1932.247925,441.639496 
	C1932.247925,417.326630 1932.318237,393.013306 1932.169312,368.701355 
	C1932.147949,365.207550 1933.535889,363.099670 1935.766113,360.573700 
	C1941.990845,353.523499 1949.325317,351.132904 1958.658203,351.818695 
	C1969.081543,352.584595 1979.604614,351.994385 1990.417236,351.994385 
	C1990.417236,358.147705 1990.417236,364.058868 1990.417236,370.440430 
	C1978.883423,370.440430 1967.305420,370.440430 1955.367920,370.440430 
	C1955.367920,377.432068 1955.367920,383.969849 1955.367920,390.961060 
	C1966.104614,390.961060 1976.837036,390.961060 1987.782227,390.961060 
	C1987.782227,396.678314 1987.782227,401.958679 1987.782227,407.687683 
	C1977.197266,407.687683 1966.464966,407.687683 1955.370605,407.687683 
	C1955.370605,414.512848 1955.370605,420.910706 1955.370605,427.891602 
	C1967.704224,427.891602 1980.243408,427.891602 1992.708618,427.891602 
	C1993.885254,438.968353 1986.618774,447.005371 1976.010498,447.005585 
	C1964.853149,447.005798 1953.695923,447.005615 1942.047119,447.005615 
z"/>
<path fill="#FEFEFE" opacity="1.000000" stroke="none" 
	d="
M1863.122192,417.999817 
	C1863.122192,421.454468 1863.122192,424.423828 1863.122192,427.857300 
	C1876.003296,427.857300 1888.570068,427.857300 1901.033813,427.857300 
	C1902.948730,437.410065 1895.026978,446.995941 1885.686401,447.000214 
	C1870.893188,447.006927 1856.099976,447.001984 1840.932251,447.001984 
	C1840.831909,445.301666 1840.675415,443.877197 1840.674561,442.452637 
	C1840.659546,417.645782 1840.722656,392.838654 1840.590576,368.032501 
	C1840.573853,364.892883 1841.879150,363.062561 1843.830688,360.791138 
	C1850.241577,353.329102 1858.023071,351.119415 1867.654663,351.828674 
	C1877.885864,352.582062 1888.215454,351.998016 1898.750000,351.998016 
	C1898.750000,358.266144 1898.750000,364.185150 1898.750000,370.695770 
	C1887.016479,370.695770 1875.299194,370.695770 1863.360474,370.695770 
	C1863.360474,377.687805 1863.360474,384.092010 1863.360474,390.982849 
	C1874.272949,390.982849 1885.002197,390.982849 1895.920288,390.982849 
	C1895.920288,396.742004 1895.920288,402.021790 1895.920288,407.776550 
	C1885.257812,407.776550 1874.522583,407.776550 1863.122192,407.776550 
	C1863.122192,411.324951 1863.122192,414.419708 1863.122192,417.999817 
z"/>
<path fill="#FFFEFE" opacity="1.000000" stroke="none" 
	d="
M1362.664673,373.056824 
	C1360.150635,361.402588 1370.027222,358.239227 1375.745972,352.411041 
	C1376.124146,352.025635 1376.999023,352.019775 1377.642944,352.018860 
	C1391.936279,351.998138 1406.229614,352.002960 1420.760498,352.002960 
	C1420.760498,358.292786 1420.760498,364.214203 1420.760498,370.572327 
	C1409.085205,370.572327 1397.482300,370.572327 1385.503296,370.572327 
	C1385.503296,377.391235 1385.503296,383.796326 1385.503296,390.717712 
	C1395.991455,390.717712 1406.721313,390.717712 1417.782715,390.717712 
	C1417.782715,396.612061 1417.782715,402.005463 1417.782715,407.894226 
	C1407.137329,407.894226 1396.395752,407.894226 1385.393311,407.894226 
	C1385.393311,414.646149 1385.393311,420.914886 1385.393311,427.794617 
	C1397.794678,427.794617 1410.340088,427.794617 1422.792603,427.794617 
	C1424.284424,438.480286 1416.931885,447.000549 1406.825195,447.001221 
	C1392.345093,447.002197 1377.864868,447.001465 1362.664673,447.001465 
	C1362.664673,422.352783 1362.664673,397.949463 1362.664673,373.056824 
z"/>
<path fill="#FCF8F7" opacity="1.000000" stroke="none" 
	d="
M1255.233643,289.999878 
	C1255.233643,273.516022 1255.227661,257.532227 1255.243530,241.548416 
	C1255.244995,240.058578 1254.824951,238.120300 1255.581421,237.176605 
	C1256.970337,235.443970 1259.138916,233.152878 1260.892212,233.227203 
	C1262.659302,233.302124 1264.627441,235.752640 1265.900513,237.584229 
	C1266.614746,238.611618 1266.133179,240.493622 1266.133301,241.990540 
	C1266.138916,314.084229 1266.139160,386.177887 1266.136353,458.271576 
	C1266.136108,464.765533 1264.700562,467.091217 1260.718018,467.125641 
	C1256.762085,467.159851 1255.235107,464.723877 1255.234863,458.330017 
	C1255.232666,402.386627 1255.233643,346.443268 1255.233643,289.999878 
z"/>
<path fill="#FDFCFB" opacity="1.000000" stroke="none" 
	d="
M2151.006836,400.000000 
	C2151.006836,411.642181 2151.120117,422.786682 2150.893799,433.924286 
	C2150.856445,435.751190 2149.698486,437.885681 2148.419189,439.299164 
	C2143.220703,445.042114 2137.397949,449.560608 2128.245117,446.047424 
	C2128.245117,445.123016 2128.245117,443.518921 2128.245117,441.914795 
	C2128.245117,416.803284 2128.315918,391.691376 2128.164307,366.580780 
	C2128.143066,363.056091 2129.531006,360.963409 2131.878174,358.527771 
	C2137.118896,353.089996 2142.934082,350.418732 2151.006836,352.552063 
	C2151.006836,368.020844 2151.006836,383.760406 2151.006836,400.000000 
z"/>
<path fill="#FFFEFE" opacity="1.000000" stroke="none" 
	d="
M1668.665405,414.999756 
	C1668.665527,398.361908 1668.765625,382.222961 1668.583984,366.087189 
	C1668.546265,362.728546 1669.906494,360.792725 1672.141479,358.497162 
	C1677.384277,353.111938 1683.148438,350.342468 1691.120972,352.558228 
	C1691.120972,357.031891 1691.120972,361.646301 1691.120972,366.260712 
	C1691.120972,387.888702 1691.027100,409.517456 1691.200684,431.144043 
	C1691.235107,435.437286 1689.942505,438.222595 1686.778931,441.362091 
	C1681.613281,446.488434 1676.112305,448.124725 1668.665405,446.512024 
	C1668.665405,436.307831 1668.665405,425.903778 1668.665405,414.999756 
z"/>
<path fill="#FDFAF9" opacity="1.000000" stroke="none" 
	d="
M1562.990234,285.092346 
	C1562.693604,279.719086 1562.398315,274.817108 1562.103027,269.915131 
	C1561.811401,269.883484 1561.519897,269.851868 1561.228394,269.820221 
	C1559.525391,276.002411 1557.791016,282.176147 1556.127808,288.369019 
	C1554.216431,295.485626 1554.243652,295.492950 1546.149414,294.830688 
	C1543.886597,286.740326 1541.592407,278.538086 1539.298340,270.335876 
	C1538.976318,270.373535 1538.654175,270.411194 1538.332153,270.448853 
	C1537.827515,278.423096 1537.322754,286.397339 1536.794067,294.751282 
	C1533.615723,294.751282 1530.402710,294.751282 1526.613892,294.751282 
	C1527.383179,282.536285 1527.820679,270.276825 1529.227539,258.129669 
	C1529.482178,255.931198 1533.508911,253.804321 1536.188110,252.391861 
	C1537.742676,251.572372 1540.082642,252.242874 1542.523071,252.242874 
	C1544.975830,260.871216 1547.397339,269.389191 1549.818726,277.907166 
	C1550.116699,277.910522 1550.414673,277.913910 1550.712646,277.917267 
	C1552.690186,270.861694 1554.934326,263.865875 1556.535767,256.725922 
	C1557.371216,253.001724 1559.027100,251.799744 1562.633545,252.185455 
	C1565.253052,252.465622 1567.926758,252.240143 1571.136719,252.240143 
	C1571.942261,264.909912 1572.841797,277.303345 1573.440552,289.711334 
	C1573.589233,292.795074 1568.802246,295.194580 1563.824707,294.768646 
	C1563.551636,291.750519 1563.271729,288.657074 1562.990234,285.092346 
z"/>
<path fill="#FDFAF9" opacity="1.000000" stroke="none" 
	d="
M1640.414185,252.393127 
	C1641.569702,259.877869 1642.331055,267.245392 1642.993896,274.621765 
	C1643.335815,278.428406 1643.459229,282.254120 1643.757446,286.065308 
	C1644.274170,292.669556 1641.158936,295.542297 1634.054565,294.657745 
	C1633.537720,286.828705 1633.017090,278.942902 1632.496460,271.057098 
	C1632.116333,270.993164 1631.736206,270.929230 1631.356079,270.865295 
	C1629.141357,278.792114 1626.926758,286.718903 1624.645630,294.883728 
	C1622.065063,294.883728 1619.456299,294.883728 1616.480591,294.883728 
	C1614.245605,286.826080 1612.003418,278.742462 1609.761230,270.658844 
	C1609.410400,270.655884 1609.059448,270.652893 1608.708618,270.649902 
	C1608.155151,278.674164 1607.601685,286.698425 1607.034668,294.917542 
	C1603.679199,294.917542 1600.581665,294.917542 1596.982544,294.917542 
	C1597.359253,288.204285 1597.717041,281.626984 1598.101318,275.051239 
	C1598.382202,270.242767 1598.913086,265.437927 1598.947998,260.628662 
	C1599.001587,253.264526 1605.970093,251.159744 1611.863892,252.436752 
	C1612.789307,252.637238 1613.583984,254.643158 1613.965820,255.952332 
	C1616.099609,263.265991 1618.087769,270.622101 1620.995850,278.028992 
	C1623.415161,269.484070 1625.834595,260.939148 1628.286499,252.279556 
	C1632.339233,252.279556 1636.159180,252.279556 1640.414185,252.393127 
z"/>
<path fill="#FCF8F7" opacity="1.000000" stroke="none" 
	d="
M2293.709961,296.110291 
	C2288.960938,295.829712 2284.632812,295.791443 2280.394775,295.153442 
	C2275.807617,294.462830 2272.494141,291.257935 2272.180176,286.906372 
	C2271.565186,278.381622 2271.460205,269.749512 2272.086426,261.231140 
	C2272.491211,255.723114 2276.616943,252.403320 2282.223389,251.914612 
	C2286.655518,251.528244 2291.182861,251.308853 2295.590088,251.765961 
	C2303.164062,252.551498 2306.593262,255.370697 2307.443359,262.837006 
	C2308.262695,270.028595 2308.327393,277.462067 2307.487549,284.644714 
	C2306.566895,292.514343 2303.037109,294.907196 2293.709961,296.110291 
M2291.847412,287.602905 
	C2294.157471,287.035004 2297.167236,287.347870 2297.186768,283.722595 
	C2297.228271,275.991882 2297.199463,268.260773 2297.199463,260.154510 
	C2293.025146,260.154510 2289.377930,259.868591 2285.816895,260.297089 
	C2284.419434,260.465240 2282.137207,262.190247 2282.093994,263.279205 
	C2281.775635,271.297180 2281.921631,279.333618 2281.921631,287.647278 
	C2285.367432,287.647278 2288.163818,287.647278 2291.847412,287.602905 
z"/>
<path fill="#FDFAF9" opacity="1.000000" stroke="none" 
	d="
M2168.133057,258.080322 
	C2171.437988,267.862335 2170.977783,277.426697 2169.042969,286.955383 
	C2168.149902,291.354248 2165.300781,294.667236 2160.700928,295.143799 
	C2155.134521,295.720490 2149.441895,296.025635 2143.888672,295.519653 
	C2138.176758,294.999237 2134.225830,291.277039 2133.922363,285.420807 
	C2133.504150,277.352844 2133.452393,269.205109 2134.115479,261.163422 
	C2134.552246,255.865341 2138.469727,252.499512 2143.843750,252.005127 
	C2148.763428,251.552567 2153.900146,251.128296 2158.661621,252.084152 
	C2162.011963,252.756729 2164.893555,255.762451 2168.133057,258.080322 
M2143.730957,276.484283 
	C2143.730957,280.070007 2143.730957,283.655701 2143.730957,287.819000 
	C2148.130859,287.612366 2151.946777,287.765259 2155.614014,287.097900 
	C2157.086914,286.829865 2159.292236,284.809326 2159.352539,283.503113 
	C2159.706543,275.799438 2159.526611,268.071198 2159.526611,260.114807 
	C2155.466797,260.114807 2151.997070,260.121033 2148.527588,260.113007 
	C2145.211182,260.105316 2143.723389,261.834442 2143.738525,265.061768 
	C2143.755127,268.540314 2143.734863,272.018982 2143.730957,276.484283 
z"/>
<path fill="#FDFCFB" opacity="1.000000" stroke="none" 
	d="
M2110.128418,273.026642 
	C2109.818848,277.308136 2109.675293,281.127197 2109.161621,284.895721 
	C2108.320801,291.059113 2104.699463,294.991974 2098.526855,295.632751 
	C2093.617432,296.142395 2088.567139,296.103027 2083.656738,295.580963 
	C2078.185547,294.999237 2074.028076,291.629303 2073.666992,286.071747 
	C2073.124512,277.725739 2073.195557,269.274109 2073.874512,260.938110 
	C2074.309570,255.598160 2078.416504,252.717972 2083.719482,251.882431 
	C2084.211914,251.804871 2084.706787,251.739670 2085.202637,251.688904 
	C2106.027832,249.556564 2109.967529,255.182526 2110.128418,273.026642 
M2083.312256,276.468506 
	C2083.312256,280.063812 2083.312256,283.659119 2083.312256,287.293030 
	C2087.808105,287.293030 2091.637695,287.637207 2095.344727,287.113251 
	C2096.710938,286.920135 2098.772949,284.723419 2098.833496,283.365265 
	C2099.172852,275.773621 2098.996582,268.158936 2098.996582,260.110260 
	C2095.088623,260.110260 2091.635986,260.131561 2088.183594,260.104156 
	C2084.864014,260.077850 2083.299805,261.732056 2083.313232,265.006714 
	C2083.327637,268.500793 2083.313721,271.995026 2083.312256,276.468506 
z"/>
<path fill="#FEFCFC" opacity="1.000000" stroke="none" 
	d="
M1422.127441,281.194336 
	C1422.126831,285.974884 1422.126831,290.272644 1422.126831,294.844727 
	C1418.711182,294.844727 1415.627441,294.844727 1411.873413,294.844727 
	C1411.873413,286.327515 1411.873413,277.741699 1411.873413,269.155853 
	C1411.873413,266.492554 1411.868652,263.829285 1411.874390,261.165985 
	C1411.888306,254.745438 1414.704834,252.171341 1421.860840,252.427826 
	C1421.860840,257.994598 1421.860840,263.590057 1421.860840,269.589783 
	C1426.635620,269.589783 1431.012573,269.589783 1435.797119,269.589783 
	C1435.797119,264.163910 1435.797119,258.574341 1435.797119,252.617798 
	C1439.398682,252.617798 1442.608398,252.617798 1446.334229,252.617798 
	C1446.334229,264.948029 1446.462158,277.232391 1446.253662,289.511047 
	C1446.193726,293.039001 1441.913086,295.192627 1436.140869,294.962097 
	C1436.140869,289.440247 1436.140869,283.881866 1436.140869,277.769440 
	C1431.913330,277.769440 1428.135498,277.597015 1424.396973,277.903229 
	C1423.569458,277.971069 1422.880737,279.730865 1422.127441,281.194336 
z"/>
<path fill="#FCFAF9" opacity="1.000000" stroke="none" 
	d="
M1782.459961,261.420654 
	C1783.944458,254.225967 1787.263672,250.937592 1800.776733,252.510345 
	C1804.097534,264.544739 1807.577637,276.779266 1810.798462,289.081635 
	C1811.648804,292.329498 1807.312378,295.144196 1802.236084,294.811401 
	C1801.488525,292.382141 1800.717407,289.876190 1799.896729,287.209595 
	C1795.228149,287.209595 1790.629517,287.209595 1785.850708,287.209595 
	C1785.044556,289.797455 1784.270386,292.282623 1783.448853,294.920105 
	C1780.202148,294.920105 1777.090942,294.920105 1773.295776,294.920105 
	C1776.351318,283.701599 1779.335449,272.745575 1782.459961,261.420654 
M1789.908936,279.250458 
	C1792.371338,279.250458 1794.833740,279.250458 1797.823242,279.250458 
	C1796.206665,273.442047 1794.753174,268.219757 1793.299683,262.997498 
	C1792.811401,263.043335 1792.323120,263.089203 1791.834717,263.135071 
	C1790.908325,268.475677 1789.981934,273.816315 1789.908936,279.250458 
z"/>
<path fill="#FCFAF9" opacity="1.000000" stroke="none" 
	d="
M1495.502686,254.387039 
	C1498.479614,265.180756 1501.303833,275.588593 1504.103394,286.003143 
	C1505.757446,292.156677 1503.309448,295.125061 1496.522949,294.926422 
	C1496.134644,293.798615 1495.690430,292.590637 1495.304321,291.364319 
	C1494.909058,290.108643 1494.570923,288.834991 1494.134399,287.314087 
	C1489.475098,287.314087 1484.894043,287.314087 1480.012939,287.314087 
	C1479.270264,289.678680 1478.484375,292.180359 1477.628540,294.905029 
	C1474.442261,294.905029 1471.183960,294.905029 1467.377319,294.905029 
	C1470.883057,282.285492 1474.008789,269.927887 1477.820679,257.785675 
	C1479.686279,251.842758 1490.671021,249.815247 1495.502686,254.387039 
M1486.589844,279.267334 
	C1488.277710,279.189819 1489.965454,279.112305 1491.949463,279.021210 
	C1490.341675,273.279175 1488.920898,268.205139 1487.500244,263.131104 
	C1487.174316,263.148895 1486.848389,263.166718 1486.522583,263.184509 
	C1485.093140,268.323761 1483.663818,273.463013 1482.158325,278.875854 
	C1483.520630,279.024933 1484.626587,279.145966 1486.589844,279.267334 
z"/>
<path fill="#FCFAF9" opacity="1.000000" stroke="none" 
	d="
M1681.224731,287.012024 
	C1674.457397,286.022522 1676.396606,291.814423 1674.300903,294.830231 
	C1671.334229,294.830231 1668.075073,294.830231 1664.227539,294.830231 
	C1667.714600,282.256165 1670.815430,269.753784 1674.872559,257.569824 
	C1675.673706,255.164017 1679.967773,253.421326 1682.997192,252.411972 
	C1685.534058,251.566742 1688.576172,252.238388 1691.700806,252.238388 
	C1695.084717,264.544556 1698.493408,276.654541 1701.707153,288.816071 
	C1702.588867,292.152740 1698.639160,295.028534 1693.328003,294.962891 
	C1692.512329,292.452728 1691.661377,289.834015 1690.744385,287.012024 
	C1687.651611,287.012024 1684.667358,287.012024 1681.224731,287.012024 
M1685.782104,267.928955 
	C1685.206909,266.269165 1684.631714,264.609375 1683.672729,261.841919 
	C1681.934448,268.235809 1680.507202,273.485779 1679.004517,279.013062 
	C1682.487183,279.013062 1685.407227,279.013062 1688.656006,279.013062 
	C1687.696655,275.358368 1686.820435,272.020966 1685.782104,267.928955 
z"/>
<path fill="#FEFCFC" opacity="1.000000" stroke="none" 
	d="
M2046.688843,252.313385 
	C2047.476196,253.905289 2048.069092,255.446274 2048.082764,256.992462 
	C2048.169189,266.654602 2048.129150,276.317963 2048.125732,285.980896 
	C2048.123291,292.945374 2045.571289,295.306976 2037.908447,294.925751 
	C2037.908447,289.391052 2037.908447,283.814880 2037.908447,278.003265 
	C2033.112305,278.003265 2028.848022,278.003265 2024.065308,278.003265 
	C2024.065308,283.582520 2024.065308,289.154663 2024.065308,294.906158 
	C2020.478516,294.906158 2017.406738,294.906158 2013.878418,294.906158 
	C2013.878418,282.575134 2013.774780,270.458008 2013.937256,258.344452 
	C2013.990845,254.349457 2018.239014,252.039017 2023.931152,252.700485 
	C2023.931152,258.246155 2023.931152,263.852203 2023.931152,269.721283 
	C2028.569824,269.721283 2032.837158,269.721283 2037.739746,269.721283 
	C2037.739746,264.152191 2037.739746,258.437195 2037.739746,252.264862 
	C2040.984863,252.264862 2043.605713,252.264862 2046.688843,252.313385 
z"/>
<path fill="#FCFAF9" opacity="1.000000" stroke="none" 
	d="
M1909.051270,271.627014 
	C1908.702026,268.941162 1908.247314,266.631561 1908.278687,264.328583 
	C1908.395264,255.782166 1911.728760,251.821503 1920.099854,251.413055 
	C1925.976685,251.126297 1931.907104,251.938644 1937.819214,252.260483 
	C1937.486206,257.762848 1935.117554,260.186646 1930.942505,260.181061 
	C1927.308960,260.176239 1923.675293,260.180084 1920.126831,260.180084 
	C1918.302368,268.097595 1918.507324,268.400146 1925.776611,268.994934 
	C1936.789673,269.896057 1940.511475,273.514008 1940.353394,283.165375 
	C1940.221558,291.216034 1936.717529,295.427490 1928.790161,295.915222 
	C1923.517944,296.239594 1918.168335,295.752777 1912.887939,295.259491 
	C1910.967041,295.080017 1907.405029,295.951691 1908.052490,292.059174 
	C1908.628784,288.595673 1910.938599,286.627319 1914.733032,286.887604 
	C1918.542114,287.148804 1922.354736,287.388672 1926.169800,287.512909 
	C1927.100708,287.543213 1928.047607,287.084808 1929.082520,286.827362 
	C1929.082520,284.315857 1929.082520,282.016144 1929.082520,279.549347 
	C1922.533813,276.901703 1913.605591,280.252716 1909.051270,271.627014 
z"/>
<path fill="#FCFAF9" opacity="1.000000" stroke="none" 
	d="
M1751.905762,273.139526 
	C1756.018555,278.873199 1755.988525,284.727051 1753.142822,290.405792 
	C1750.533569,295.613007 1745.274902,296.181885 1740.185059,296.075104 
	C1734.268677,295.951019 1728.361450,295.379608 1722.451782,295.002441 
	C1722.927979,288.268372 1725.028198,286.483063 1730.597412,287.021423 
	C1733.572998,287.309052 1736.562256,287.525146 1739.549316,287.587555 
	C1740.829102,287.614258 1742.118774,287.167542 1743.612793,286.898315 
	C1743.612793,284.307800 1743.612793,281.902618 1743.612793,279.357971 
	C1739.083252,278.624634 1734.618774,278.197449 1730.312012,277.132233 
	C1724.472778,275.687988 1722.647095,272.595886 1722.649780,265.464172 
	C1722.652710,257.608490 1724.926025,252.810822 1730.495605,252.205002 
	C1737.621582,251.429901 1744.895630,252.016876 1752.145874,252.016876 
	C1751.857544,257.890930 1749.611694,260.212128 1745.381470,260.186432 
	C1741.747070,260.164368 1738.112427,260.181854 1734.121582,260.181854 
	C1734.121582,263.022491 1734.121582,265.579010 1734.121582,267.333771 
	C1740.180420,269.247986 1745.910278,271.058228 1751.905762,273.139526 
z"/>
<path fill="#FDFAF9" opacity="1.000000" stroke="none" 
	d="
M1973.010620,271.098511 
	C1973.010620,276.532654 1973.010620,281.481262 1973.010620,286.928345 
	C1978.951050,286.928345 1984.459717,286.928345 1990.557861,286.928345 
	C1990.744873,289.017090 1990.986572,291.715485 1991.348877,295.761261 
	C1984.719971,295.761261 1978.641479,296.206665 1972.661011,295.631348 
	C1967.090332,295.095398 1963.459351,291.195160 1963.097900,285.711609 
	C1962.578003,277.822723 1962.479126,269.830811 1963.146484,261.963104 
	C1963.667114,255.825226 1967.475830,252.480286 1973.705078,251.896561 
	C1979.212036,251.380539 1984.805542,251.788513 1990.902100,251.788513 
	C1990.413330,255.403671 1990.070435,257.941010 1989.682373,260.811707 
	C1986.586548,260.533508 1983.683350,260.113159 1980.771729,260.042755 
	C1973.767578,259.873352 1973.039307,260.651245 1973.010986,267.621704 
	C1973.006958,268.618805 1973.010620,269.615875 1973.010620,271.098511 
z"/>
<path fill="#FDFCFB" opacity="1.000000" stroke="none" 
	d="
M2332.652832,265.200378 
	C2332.653320,254.710770 2335.122070,252.245758 2345.156738,252.245453 
	C2349.609131,252.245331 2354.061523,252.245438 2358.754395,252.245438 
	C2358.754395,255.274185 2358.754395,257.856018 2358.754395,261.007233 
	C2356.157227,261.007233 2353.553955,261.007202 2350.950684,261.007202 
	C2348.483398,261.007202 2346.016113,261.007233 2343.282227,261.007233 
	C2343.282227,264.362305 2343.282227,267.421082 2343.282227,270.826111 
	C2347.094971,270.826111 2350.861572,270.826111 2354.986572,270.826111 
	C2354.986572,273.525055 2354.986572,275.889923 2354.986572,278.631409 
	C2351.104492,278.631409 2347.343506,278.631409 2343.091553,278.631409 
	C2343.091553,284.214478 2343.091553,289.448944 2343.091553,294.899841 
	C2339.511719,294.899841 2336.420166,294.899841 2332.652832,294.899841 
	C2332.652832,285.135223 2332.652832,275.403229 2332.652832,265.200378 
z"/>
<path fill="#FBF7F6" opacity="1.000000" stroke="none" 
	d="
M1390.887817,253.354538 
	C1390.991577,255.964020 1390.991577,258.122528 1390.991577,260.770386 
	C1387.560303,260.920380 1384.170776,261.068573 1380.365356,261.234955 
	C1380.365356,269.853638 1380.375000,278.285492 1380.362305,286.717316 
	C1380.352539,293.231812 1377.325317,295.694794 1370.225098,294.585052 
	C1370.225098,283.596680 1370.225098,272.534088 1370.225098,261.141998 
	C1366.701538,261.141998 1363.596680,261.141998 1360.544067,261.141998 
	C1359.981812,257.331146 1363.275635,252.467041 1367.058472,252.383820 
	C1374.959351,252.209991 1382.874634,252.691345 1390.887817,253.354538 
z"/>
<path fill="#F9F4F2" opacity="1.000000" stroke="none" 
	d="
M1858.148682,255.174454 
	C1858.151001,257.273682 1858.151001,258.904236 1858.151001,260.893097 
	C1854.704590,260.893097 1851.600952,260.893097 1847.782715,260.893097 
	C1847.782715,269.650726 1847.791992,278.064819 1847.779907,286.478912 
	C1847.770264,293.109650 1844.480469,295.749908 1837.354248,294.599518 
	C1837.354248,283.683685 1837.354248,272.714874 1837.354248,261.240051 
	C1833.843018,261.240051 1830.600952,261.240051 1827.380493,261.240051 
	C1827.213867,256.910339 1831.017578,252.381668 1834.914673,252.274994 
	C1841.741943,252.088135 1848.580811,252.127991 1855.407104,252.332611 
	C1856.343018,252.360657 1857.234497,253.877991 1858.148682,255.174454 
z"/>
<path fill="#FEFEFE" opacity="1.000000" stroke="none" 
	d="
M2203.096436,252.268356 
	C2204.014893,253.813614 2204.915039,255.342514 2204.935791,256.883118 
	C2205.065918,266.655396 2205.001953,276.430237 2205.001953,286.535950 
	C2209.765869,286.535950 2214.047607,286.535950 2218.235352,286.535950 
	C2219.438965,291.168793 2216.852295,294.931000 2212.367920,295.075470 
	C2206.728516,295.257202 2201.078613,295.119263 2194.663330,295.119263 
	C2194.663330,290.677948 2194.663330,286.442169 2194.663330,282.206421 
	C2194.663330,275.047485 2194.649170,267.888519 2194.667725,260.729614 
	C2194.681885,255.318924 2196.961914,252.926453 2203.096436,252.268356 
z"/>
<path fill="#FEFEFD" opacity="1.000000" stroke="none" 
	d="
M321.269653,363.455322 
	C321.346588,363.399536 321.403992,363.589722 321.403992,363.589722 
	C321.403992,363.589722 321.192749,363.511078 321.269653,363.455322 
z"/>
<path fill="#8E1D1F" opacity="1.000000" stroke="none" 
	d="
M2046.325195,384.999939 
	C2046.325195,380.057526 2046.325195,375.610504 2046.325195,370.986420 
	C2053.510254,370.986420 2060.126221,370.905518 2066.739014,371.020630 
	C2070.033203,371.077972 2072.030273,372.835358 2072.052979,376.303192 
	C2072.091064,382.112976 2072.096191,387.923492 2072.046631,393.733093 
	C2072.017334,397.177307 2070.054443,398.991974 2066.742188,399.050568 
	C2060.128174,399.167603 2053.510498,399.085266 2046.325195,399.085266 
	C2046.325195,394.381439 2046.325195,389.938354 2046.325195,384.999939 
z"/>
<path fill="#8E1D1F" opacity="1.000000" stroke="none" 
	d="
M2291.403809,287.625092 
	C2288.163818,287.647278 2285.367432,287.647278 2281.921631,287.647278 
	C2281.921631,279.333618 2281.775635,271.297180 2282.093994,263.279205 
	C2282.137207,262.190247 2284.419434,260.465240 2285.816895,260.297089 
	C2289.377930,259.868591 2293.025146,260.154510 2297.199463,260.154510 
	C2297.199463,268.260773 2297.228271,275.991882 2297.186768,283.722595 
	C2297.167236,287.347870 2294.157471,287.035004 2291.403809,287.625092 
z"/>
<path fill="#912224" opacity="1.000000" stroke="none" 
	d="
M2143.730957,275.990967 
	C2143.734863,272.018982 2143.755127,268.540314 2143.738525,265.061768 
	C2143.723389,261.834442 2145.211182,260.105316 2148.527588,260.113007 
	C2151.997070,260.121033 2155.466797,260.114807 2159.526611,260.114807 
	C2159.526611,268.071198 2159.706543,275.799438 2159.352539,283.503113 
	C2159.292236,284.809326 2157.086914,286.829865 2155.614014,287.097900 
	C2151.946777,287.765259 2148.130859,287.612366 2143.730957,287.819000 
	C2143.730957,283.655701 2143.730957,280.070007 2143.730957,275.990967 
z"/>
<path fill="#912224" opacity="1.000000" stroke="none" 
	d="
M2083.312256,275.978821 
	C2083.313721,271.995026 2083.327637,268.500793 2083.313232,265.006714 
	C2083.299805,261.732056 2084.864014,260.077850 2088.183594,260.104156 
	C2091.635986,260.131561 2095.088623,260.110260 2098.996582,260.110260 
	C2098.996582,268.158936 2099.172852,275.773621 2098.833496,283.365265 
	C2098.772949,284.723419 2096.710938,286.920135 2095.344727,287.113251 
	C2091.637695,287.637207 2087.808105,287.293030 2083.312256,287.293030 
	C2083.312256,283.659119 2083.312256,280.063812 2083.312256,275.978821 
z"/>
<path fill="#912224" opacity="1.000000" stroke="none" 
	d="
M1789.482178,279.203674 
	C1789.981934,273.816315 1790.908325,268.475677 1791.834717,263.135071 
	C1792.323120,263.089203 1792.811401,263.043335 1793.299683,262.997498 
	C1794.753174,268.219757 1796.206665,273.442047 1797.823242,279.250458 
	C1794.833740,279.250458 1792.371338,279.250458 1789.482178,279.203674 
z"/>
<path fill="#912224" opacity="1.000000" stroke="none" 
	d="
M1486.161133,279.267151 
	C1484.626587,279.145966 1483.520630,279.024933 1482.158325,278.875854 
	C1483.663818,273.463013 1485.093140,268.323761 1486.522583,263.184509 
	C1486.848389,263.166718 1487.174316,263.148895 1487.500244,263.131104 
	C1488.920898,268.205139 1490.341675,273.279175 1491.949463,279.021210 
	C1489.965454,279.112305 1488.277710,279.189819 1486.161133,279.267151 
z"/>
<path fill="#912224" opacity="1.000000" stroke="none" 
	d="
M1685.863281,268.306274 
	C1686.820435,272.020966 1687.696655,275.358368 1688.656006,279.013062 
	C1685.407227,279.013062 1682.487183,279.013062 1679.004517,279.013062 
	C1680.507202,273.485779 1681.934448,268.235809 1683.672729,261.841919 
	C1684.631714,264.609375 1685.206909,266.269165 1685.863281,268.306274 
z"/>
</svg>